<?xml version="1.0" standalone="no"?>
<!DOCTYPE svg PUBLIC "-//W3C//DTD SVG 20010904//EN"
 "http://www.w3.org/TR/2001/REC-SVG-20010904/DTD/svg10.dtd">
<svg version="1.0" xmlns="http://www.w3.org/2000/svg"
 width="129.000000pt" height="128.000000pt" viewBox="0 0 129.000000 128.000000"
 preserveAspectRatio="xMidYMid meet">
<metadata>
Created by potrace 1.10, written by Peter Selinger 2001-2011
</metadata>
<g transform="translate(0.000000,128.000000) scale(0.100000,-0.100000)"
fill="#2e8a39" stroke="none">
<path d="M414 1075 c-11 -78 0 -150 29 -188 27 -36 134 -113 144 -104 9 10 16
134 9 172 -9 44 -61 104 -121 139 -24 14 -46 26 -49 26 -2 0 -8 -20 -12 -45z
m100 -54 c29 -25 49 -72 51 -118 2 -44 -3 -51 -22 -32 -8 8 -13 7 -18 -2 -6
-8 -4 -10 5 -4 9 6 11 4 5 -5 -5 -9 -13 -6 -30 12 -40 43 -63 99 -57 141 4 33
7 37 26 31 11 -3 29 -14 40 -23z"/>
<path d="M835 1073 c-102 -65 -131 -122 -122 -234 3 -39 8 -73 11 -76 15 -16
137 80 162 128 22 43 18 211 -5 208 -3 0 -24 -12 -46 -26z m30 -53 c8 -25 -3
-93 -20 -126 -15 -29 -58 -64 -79 -64 -12 0 -16 10 -16 44 0 61 14 92 58 132
44 39 49 41 57 14z"/>
<path d="M191 860 c-24 -5 -46 -11 -48 -14 -9 -8 76 -111 109 -133 18 -12 50
-25 71 -28 42 -8 167 12 167 27 0 17 -74 105 -108 129 -38 26 -118 34 -191 19z
m154 -40 c-3 -5 -1 -10 6 -10 7 0 28 -14 45 -31 28 -27 31 -34 19 -45 -15 -16
-82 -18 -117 -5 -30 12 -88 69 -88 87 0 11 17 14 71 14 44 0 68 -4 64 -10z"/>
<path d="M925 808 c-55 -30 -144 -141 -124 -154 6 -4 50 -9 98 -11 106 -6 135
8 204 95 l48 61 -38 10 c-49 14 -162 13 -188 -1z m147 -36 c6 -6 5 -12 -3 -17
-8 -6 -10 -4 -4 5 5 8 4 11 -3 6 -6 -4 -9 -12 -6 -19 5 -13 -28 -47 -66 -67
-17 -9 -21 -9 -15 0 6 9 3 9 -12 2 -23 -13 -85 -11 -95 2 -7 10 35 82 45 79 4
-1 21 4 39 13 34 15 103 13 120 -4z"/>
<path d="M255 599 c-57 -33 -144 -142 -124 -155 6 -4 50 -9 98 -11 72 -4 92
-1 121 15 44 24 134 132 121 145 -15 15 -193 20 -216 6z m128 -27 c35 -2 31
-18 -18 -64 -40 -39 -62 -45 -147 -39 -28 2 -16 40 24 75 35 31 44 33 141 28z"/>
<path d="M831 559 c-25 -5 -49 -10 -54 -12 -5 -1 11 -30 36 -63 70 -95 141
-120 266 -93 48 10 50 12 39 32 -6 12 -34 45 -61 74 -66 71 -115 84 -226 62z
m143 -40 c14 -7 23 -16 20 -20 -3 -5 1 -6 9 -3 13 5 49 -37 53 -62 1 -7 -22
-12 -60 -13 -57 -2 -66 1 -104 31 -69 56 -67 78 8 78 27 0 60 -5 74 -11z"/>
<path d="M466 447 c-83 -59 -102 -98 -99 -206 1 -46 5 -86 7 -89 3 -2 31 10
62 29 67 40 110 94 119 150 9 52 -4 159 -18 159 -7 -1 -39 -20 -71 -43z m53
-71 c1 -23 -2 -54 -8 -67 -13 -35 -59 -81 -73 -73 -6 4 -8 3 -5 -3 4 -6 0 -14
-9 -17 -8 -3 -12 -2 -9 4 3 6 1 10 -4 10 -17 0 -12 71 8 115 10 22 30 46 44
54 15 8 27 18 27 22 0 5 6 6 13 3 8 -3 14 -23 16 -48z"/>
<path d="M675 461 c-9 -16 -7 -164 3 -191 18 -46 152 -154 170 -136 3 3 6 46
6 94 1 79 -2 92 -26 129 -14 22 -51 56 -81 76 -61 40 -63 41 -72 28z m91 -88
c39 -29 56 -68 58 -131 1 -42 -2 -48 -16 -44 -10 2 -15 9 -11 15 3 5 1 7 -5 3
-14 -9 -68 42 -81 77 -19 51 -11 124 13 110 6 -4 25 -17 42 -30z"/>
</g>
</svg>
